<?xml version="1.0" encoding="UTF-8" standalone="no"?>
<!-- Generator: Adobe Illustrator 16.0.0, SVG Export Plug-In . SVG Version: 6.00 Build 0)  -->

<svg
   xmlns:dc="http://purl.org/dc/elements/1.1/"
   xmlns:cc="http://creativecommons.org/ns#"
   xmlns:rdf="http://www.w3.org/1999/02/22-rdf-syntax-ns#"
   xmlns:svg="http://www.w3.org/2000/svg"
   xmlns="http://www.w3.org/2000/svg"
   xmlns:sodipodi="http://sodipodi.sourceforge.net/DTD/sodipodi-0.dtd"
   xmlns:inkscape="http://www.inkscape.org/namespaces/inkscape"
   version="1.1"
   id="Layer_1"
   x="0px"
   y="0px"
   width="40"
   height="40"
   viewBox="314.5 -315.5 40 40"
   enable-background="new 314.5 -315.5 50 50"
   xml:space="preserve"
   inkscape:version="0.91 r"
   sodipodi:docname="bitcoin_network.svg"><metadata
     id="metadata9"><rdf:RDF><cc:Work
         rdf:about=""><dc:format>image/svg+xml</dc:format><dc:type
           rdf:resource="http://purl.org/dc/dcmitype/StillImage" /><dc:title></dc:title></cc:Work></rdf:RDF></metadata><defs
     id="defs7" /><sodipodi:namedview
     pagecolor="#ffffff"
     bordercolor="#666666"
     borderopacity="1"
     objecttolerance="10"
     gridtolerance="10"
     guidetolerance="10"
     inkscape:pageopacity="0"
     inkscape:pageshadow="2"
     inkscape:window-width="1600"
     inkscape:window-height="848"
     id="namedview5"
     showgrid="false"
     inkscape:zoom="6.675088"
     inkscape:cx="6.0395033"
     inkscape:cy="39.669456"
     inkscape:window-x="0"
     inkscape:window-y="0"
     inkscape:window-maximized="1"
     inkscape:current-layer="Layer_1" /><path
     d="m 345.503,-299.7615 1.743,-7.262 c 0.108,0.011 0.215,0.033 0.327,0.033 1.792,0 3.25,-1.458 3.25,-3.25 0,-1.792 -1.458,-3.25 -3.25,-3.25 -1.792,0 -3.25,1.458 -3.25,3.25 0,1.33 0.805,2.473 1.952,2.976 l -1.725,7.185 c -0.997,-0.282 -2.044,-0.444 -3.13,-0.444 -3.079,0 -5.872,1.222 -7.939,3.198 l -5.934,-6.674 c 1.081,-0.962 1.776,-2.348 1.776,-3.906 0,-2.895 -2.355,-5.25 -5.25,-5.25 -2.895,0 -5.25,2.355 -5.25,5.25 0,2.895 2.355,5.25 5.25,5.25 0.976,0 1.879,-0.285 2.663,-0.751 l 6.052,6.807 c -1.748,1.987 -2.823,4.573 -2.866,7.41 l -5.362,0.417 c 0.002,-0.045 0.014,-0.088 0.014,-0.134 0,-2.343 -1.906,-4.25 -4.25,-4.25 -2.344,0 -4.25,1.907 -4.25,4.25 0,2.343 1.906,4.25 4.25,4.25 1.942,0 3.566,-1.317 4.072,-3.1 l 5.56,-0.433 c 0.427,5.958 5.399,10.68 11.466,10.68 6.344,0 11.504,-5.162 11.504,-11.507 -10e-4,-4.905 -3.092,-9.092 -7.423,-10.745 z m -0.18,-10.478 c 0,-1.241 1.01,-2.25 2.25,-2.25 1.24,0 2.25,1.009 2.25,2.25 0,1.241 -1.01,2.25 -2.25,2.25 -1.24,0 -2.25,-1.01 -2.25,-2.25 z m -25.5,2.334 c 0,-2.343 1.906,-4.25 4.25,-4.25 2.344,0 4.25,1.907 4.25,4.25 0,2.343 -1.906,4.25 -4.25,4.25 -2.344,0 -4.25,-1.907 -4.25,-4.25 z m 0.5,22.25 c -1.792,0 -3.25,-1.458 -3.25,-3.25 0,-1.792 1.458,-3.25 3.25,-3.25 1.792,0 3.25,1.458 3.25,3.25 0,1.792 -1.458,3.25 -3.25,3.25 z m 21.098,6.905 c -5.67,0 -10.266,-4.596 -10.266,-10.266 0,-5.669 4.596,-10.266 10.266,-10.266 5.668,0 10.264,4.597 10.264,10.266 0,5.67 -4.596,10.266 -10.264,10.266 z m -0.059,-11.083 -0.943,0 0,-2.1 0.943,0 c 0.551,0 0.934,0.034 1.146,0.103 0.213,0.067 0.379,0.183 0.49,0.343 0.113,0.16 0.172,0.354 0.172,0.58 0,0.217 -0.061,0.411 -0.18,0.577 -0.121,0.166 -0.297,0.291 -0.533,0.373 -0.236,0.082 -0.601,0.124 -1.095,0.124 z m 1.797,1.801 c 0.119,0.179 0.178,0.394 0.178,0.648 0,0.301 -0.086,0.559 -0.254,0.772 -0.168,0.213 -0.371,0.354 -0.611,0.423 -0.242,0.066 -0.545,0.103 -0.908,0.103 l -0.629,0 c -0.209,0 -0.338,-0.012 -0.385,-0.036 -0.047,-0.021 -0.082,-0.062 -0.102,-0.119 -0.018,-0.045 -0.027,-0.199 -0.029,-0.464 l 0,-1.864 1.113,0 c 0.488,0 0.85,0.046 1.09,0.138 0.24,0.089 0.416,0.223 0.537,0.399 z m -1.738,-10.171 c -5.074,0 -9.188,4.114 -9.188,9.188 0,5.075 4.113,9.188 9.188,9.188 5.072,0 9.186,-4.112 9.186,-9.188 -0.001,-5.074 -4.114,-9.188 -9.186,-9.188 z m 3.736,12.309 c -0.273,0.386 -0.662,0.679 -1.166,0.881 -0.184,0.073 -0.4,0.133 -0.645,0.181 l 0,1.538 -1.459,0 0,-1.418 c -0.035,0 -0.07,10e-4 -0.107,10e-4 l -0.828,0 0,1.417 -1.459,0 0,-1.417 -2.225,0 0,-1.19 0.34,0 c 0.229,0 0.379,-0.02 0.459,-0.059 0.08,-0.039 0.137,-0.094 0.17,-0.167 0.033,-0.072 0.049,-0.233 0.049,-0.484 l 0,-4.803 c 0,-0.254 -0.016,-0.418 -0.049,-0.488 -0.033,-0.068 -0.09,-0.126 -0.17,-0.166 -0.08,-0.041 -0.23,-0.062 -0.459,-0.062 l -0.34,0 0,-1.191 2.225,0 0,-1.416 1.459,0 0,1.416 0.936,0 0,-1.416 1.459,0 0,1.519 c 0.215,0.042 0.412,0.092 0.578,0.16 0.428,0.175 0.758,0.426 0.988,0.752 0.227,0.328 0.342,0.688 0.342,1.078 0,0.283 -0.061,0.554 -0.182,0.809 -0.119,0.255 -0.297,0.479 -0.525,0.676 -0.229,0.195 -0.531,0.356 -0.908,0.484 0.404,0.102 0.713,0.217 0.926,0.34 0.309,0.174 0.551,0.415 0.734,0.726 0.182,0.311 0.273,0.657 0.273,1.039 0,0.456 -0.14,0.877 -0.416,1.26 z m 2.416,-22.803 c -0.852,0 -1.541,-0.69 -1.541,-1.542 0,-0.851 0.689,-1.541 1.541,-1.541 0.852,0 1.543,0.69 1.543,1.541 0,0.851 -0.691,1.542 -1.543,1.542 z m -20.459,0.792 c 0,1.68 -1.361,3.042 -3.041,3.042 -1.68,0 -3.043,-1.362 -3.043,-3.042 0,-1.681 1.363,-3.042 3.043,-3.042 1.68,0 3.041,1.361 3.041,3.042 z m -4.75,19 c 0,1.127 -0.914,2.042 -2.041,2.042 -1.127,0 -2.043,-0.915 -2.043,-2.042 0,-1.128 0.916,-2.042 2.043,-2.042 1.127,0 2.041,0.914 2.041,2.042 z"
     id="path3"
     style="fill:#d45500"
     inkscape:connector-curvature="0" /></svg>