<?xml version="1.0" encoding="UTF-8" standalone="no"?>
<!-- Generator: Adobe Illustrator 17.0.2, SVG Export Plug-In . SVG Version: 6.00 Build 0)  -->

<svg
   xmlns:dc="http://purl.org/dc/elements/1.1/"
   xmlns:cc="http://creativecommons.org/ns#"
   xmlns:rdf="http://www.w3.org/1999/02/22-rdf-syntax-ns#"
   xmlns:svg="http://www.w3.org/2000/svg"
   xmlns="http://www.w3.org/2000/svg"
   xmlns:sodipodi="http://sodipodi.sourceforge.net/DTD/sodipodi-0.dtd"
   xmlns:inkscape="http://www.inkscape.org/namespaces/inkscape"
   version="1.1"
   id="Layer_1"
   x="0px"
   y="0px"
   width="50px"
   height="50px"
   viewBox="0 0 50 50"
   enable-background="new 0 0 50 50"
   xml:space="preserve"
   inkscape:version="0.91 r"
   sodipodi:docname="deployment.svg"><metadata
     id="metadata19"><rdf:RDF><cc:Work
         rdf:about=""><dc:format>image/svg+xml</dc:format><dc:type
           rdf:resource="http://purl.org/dc/dcmitype/StillImage" /><dc:title></dc:title></cc:Work></rdf:RDF></metadata><defs
     id="defs17" /><sodipodi:namedview
     pagecolor="#ffffff"
     bordercolor="#666666"
     borderopacity="1"
     objecttolerance="10"
     gridtolerance="10"
     guidetolerance="10"
     inkscape:pageopacity="0"
     inkscape:pageshadow="2"
     inkscape:window-width="1600"
     inkscape:window-height="848"
     id="namedview15"
     showgrid="false"
     inkscape:zoom="4.72"
     inkscape:cx="-7.0974576"
     inkscape:cy="25"
     inkscape:window-x="0"
     inkscape:window-y="0"
     inkscape:window-maximized="1"
     inkscape:current-layer="Layer_1" /><path
     fill="none"
     stroke="#000000"
     stroke-width="2"
     stroke-miterlimit="10"
     d="M50,33c-2.403,0-38.597,0-41,0c-4.418,0-8,3.582-8,8  s3.582,8,8,8c2.403,0,38.597,0,41,0"
     id="path3"
     style="stroke:#008000;stroke-opacity:1" /><circle
     fill="none"
     stroke="#000000"
     stroke-width="2"
     stroke-linecap="round"
     stroke-miterlimit="10"
     cx="10"
     cy="41"
     r="4"
     id="circle5"
     style="stroke:#008000;stroke-opacity:1" /><circle
     fill="none"
     stroke="#000000"
     stroke-width="2"
     stroke-linecap="round"
     stroke-miterlimit="10"
     cx="45"
     cy="41"
     r="4"
     id="circle7"
     style="stroke:#008000;stroke-opacity:1" /><circle
     fill="none"
     stroke="#000000"
     stroke-width="2"
     stroke-linecap="round"
     stroke-miterlimit="10"
     cx="27"
     cy="41"
     r="4"
     id="circle9"
     style="stroke:#008000;stroke-opacity:1" /><path
     fill="none"
     stroke="#000000"
     stroke-width="2"
     stroke-linecap="round"
     stroke-linejoin="round"
     stroke-miterlimit="10"
     d="  M32.5,5h-11C20.672,5,20,5.672,20,6.5S20.672,8,21.5,8h11C33.328,8,34,7.328,34,6.5S33.328,5,32.5,5z"
     id="path11"
     style="stroke:#008000;stroke-opacity:1" /><path
     fill="none"
     stroke="#000000"
     stroke-width="2"
     stroke-linejoin="round"
     stroke-miterlimit="10"
     d="M45,1c0.552,0,1,0.448,1,1  v26c0,0.552-0.448,1-1,1H9c-0.552,0-1-0.448-1-1V2c0-0.552,0.448-1,1-1H45z"
     id="path13"
     style="stroke:#008000;stroke-opacity:1" /></svg>