<?xml version="1.0" encoding="UTF-8" standalone="no"?>
<!-- Generator: Adobe Illustrator 17.0.0, SVG Export Plug-In . SVG Version: 6.00 Build 0)  -->

<svg
   xmlns:dc="http://purl.org/dc/elements/1.1/"
   xmlns:cc="http://creativecommons.org/ns#"
   xmlns:rdf="http://www.w3.org/1999/02/22-rdf-syntax-ns#"
   xmlns:svg="http://www.w3.org/2000/svg"
   xmlns="http://www.w3.org/2000/svg"
   xmlns:sodipodi="http://sodipodi.sourceforge.net/DTD/sodipodi-0.dtd"
   xmlns:inkscape="http://www.inkscape.org/namespaces/inkscape"
   version="1.1"
   id="Layer_1"
   x="0px"
   y="0px"
   width="50px"
   height="50px"
   viewBox="0 0 50 50"
   enable-background="new 0 0 50 50"
   xml:space="preserve"
   inkscape:version="0.91 r"
   sodipodi:docname="integrated_circuit.svg"><metadata
     id="metadata35"><rdf:RDF><cc:Work
         rdf:about=""><dc:format>image/svg+xml</dc:format><dc:type
           rdf:resource="http://purl.org/dc/dcmitype/StillImage" /></cc:Work></rdf:RDF></metadata><defs
     id="defs33" /><sodipodi:namedview
     pagecolor="#ffffff"
     bordercolor="#666666"
     borderopacity="1"
     objecttolerance="10"
     gridtolerance="10"
     guidetolerance="10"
     inkscape:pageopacity="0"
     inkscape:pageshadow="2"
     inkscape:window-width="1600"
     inkscape:window-height="848"
     id="namedview31"
     showgrid="false"
     inkscape:zoom="4.72"
     inkscape:cx="-7.0974576"
     inkscape:cy="25"
     inkscape:window-x="0"
     inkscape:window-y="0"
     inkscape:window-maximized="1"
     inkscape:current-layer="Layer_1" /><path
     d="M18,15c-1.657,0-3-1.343-3-3s1.343-3,3-3c1.657,0,3,1.343,3,3S19.657,15,18,15z"
     id="path3"
     style="stroke:#000080;stroke-opacity:1;fill:#000080;fill-opacity:1" /><path
     fill="none"
     stroke="#000000"
     stroke-width="2"
     stroke-linecap="round"
     stroke-linejoin="round"
     stroke-miterlimit="10"
     d="  M42,44c0,2.209-1.791,4-4,4H12c-2.209,0-4-1.791-4-4V6c0-2.209,1.791-4,4-4h26c2.209,0,4,1.791,4,4V44z"
     id="path5"
     style="stroke:#000080;stroke-opacity:1" /><path
     fill="none"
     stroke="#000000"
     stroke-width="2"
     stroke-linejoin="round"
     stroke-miterlimit="10"
     d="M45.062,9H48  c0.552,0,1,0.448,1,1v2c0,0.552-0.448,1-1,1h-2.938"
     id="path7"
     style="stroke:#000080;stroke-opacity:1" /><path
     fill="none"
     stroke="#000000"
     stroke-width="2"
     stroke-linejoin="round"
     stroke-miterlimit="10"
     d="M42,7h2  c0.552,0,1,0.448,1,1v6c0,0.552-0.448,1-1,1h-2"
     id="path9"
     style="stroke:#000080;stroke-opacity:1" /><path
     fill="none"
     stroke="#000000"
     stroke-width="2"
     stroke-linecap="round"
     stroke-linejoin="round"
     stroke-miterlimit="10"
     d="  M45.062,23H48c0.552,0,1,0.448,1,1v2c0,0.552-0.448,1-1,1h-2.938"
     id="path11"
     style="stroke:#000080;stroke-opacity:1" /><path
     fill="none"
     stroke="#000000"
     stroke-width="2"
     stroke-linecap="round"
     stroke-linejoin="round"
     stroke-miterlimit="10"
     d="  M42,21h2c0.552,0,1,0.448,1,1v6c0,0.552-0.448,1-1,1h-2"
     id="path13"
     style="stroke:#000080;stroke-opacity:1" /><path
     fill="none"
     stroke="#000000"
     stroke-width="2"
     stroke-linecap="round"
     stroke-linejoin="round"
     stroke-miterlimit="10"
     d="  M45.062,37H48c0.552,0,1,0.448,1,1v2c0,0.552-0.448,1-1,1h-2.938"
     id="path15"
     style="stroke:#000080;stroke-opacity:1" /><path
     fill="none"
     stroke="#000000"
     stroke-width="2"
     stroke-linecap="round"
     stroke-linejoin="round"
     stroke-miterlimit="10"
     d="  M42,35h2c0.552,0,1,0.448,1,1v6c0,0.552-0.448,1-1,1h-2"
     id="path17"
     style="stroke:#000080;stroke-opacity:1" /><path
     fill="none"
     stroke="#000000"
     stroke-width="2"
     stroke-linecap="round"
     stroke-linejoin="round"
     stroke-miterlimit="10"
     d="  M4.938,9H2c-0.552,0-1,0.448-1,1v2c0,0.552,0.448,1,1,1h2.938"
     id="path19"
     style="stroke:#000080;stroke-opacity:1" /><path
     fill="none"
     stroke="#000000"
     stroke-width="2"
     stroke-linecap="round"
     stroke-linejoin="round"
     stroke-miterlimit="10"
     d="  M8,7H6C5.448,7,5,7.448,5,8v6c0,0.552,0.448,1,1,1h2"
     id="path21"
     style="stroke:#000080;stroke-opacity:1" /><path
     fill="none"
     stroke="#000000"
     stroke-width="2"
     stroke-linecap="round"
     stroke-linejoin="round"
     stroke-miterlimit="10"
     d="  M4.938,23H2c-0.552,0-1,0.448-1,1v2c0,0.552,0.448,1,1,1h2.938"
     id="path23"
     style="stroke:#000080;stroke-opacity:1" /><path
     fill="none"
     stroke="#000000"
     stroke-width="2"
     stroke-linecap="round"
     stroke-linejoin="round"
     stroke-miterlimit="10"
     d="  M8,21H6c-0.552,0-1,0.448-1,1v6c0,0.552,0.448,1,1,1h2"
     id="path25"
     style="stroke:#000080;stroke-opacity:1" /><path
     fill="none"
     stroke="#000000"
     stroke-width="2"
     stroke-linecap="round"
     stroke-linejoin="round"
     stroke-miterlimit="10"
     d="  M4.938,37H2c-0.552,0-1,0.448-1,1v2c0,0.552,0.448,1,1,1h2.938"
     id="path27"
     style="stroke:#000080;stroke-opacity:1" /><path
     fill="none"
     stroke="#000000"
     stroke-width="2"
     stroke-linecap="round"
     stroke-linejoin="round"
     stroke-miterlimit="10"
     d="  M8,35H6c-0.552,0-1,0.448-1,1v6c0,0.552,0.448,1,1,1h2"
     id="path29"
     style="stroke:#000080;stroke-opacity:1" /></svg>