<?xml version="1.0" encoding="UTF-8" standalone="no"?>
<!-- Generator: Adobe Illustrator 17.0.0, SVG Export Plug-In . SVG Version: 6.00 Build 0)  -->

<svg
   xmlns:dc="http://purl.org/dc/elements/1.1/"
   xmlns:cc="http://creativecommons.org/ns#"
   xmlns:rdf="http://www.w3.org/1999/02/22-rdf-syntax-ns#"
   xmlns:svg="http://www.w3.org/2000/svg"
   xmlns="http://www.w3.org/2000/svg"
   xmlns:sodipodi="http://sodipodi.sourceforge.net/DTD/sodipodi-0.dtd"
   xmlns:inkscape="http://www.inkscape.org/namespaces/inkscape"
   version="1.1"
   id="Layer_1"
   x="0px"
   y="0px"
   width="50px"
   height="50px"
   viewBox="0 0 50 50"
   enable-background="new 0 0 50 50"
   xml:space="preserve"
   inkscape:version="0.91 r"
   sodipodi:docname="power_system.svg"><metadata
     id="metadata15"><rdf:RDF><cc:Work
         rdf:about=""><dc:format>image/svg+xml</dc:format><dc:type
           rdf:resource="http://purl.org/dc/dcmitype/StillImage" /><dc:title></dc:title></cc:Work></rdf:RDF></metadata><defs
     id="defs13" /><sodipodi:namedview
     pagecolor="#ffffff"
     bordercolor="#666666"
     borderopacity="1"
     objecttolerance="10"
     gridtolerance="10"
     guidetolerance="10"
     inkscape:pageopacity="0"
     inkscape:pageshadow="2"
     inkscape:window-width="1600"
     inkscape:window-height="848"
     id="namedview11"
     showgrid="false"
     inkscape:zoom="4.72"
     inkscape:cx="25"
     inkscape:cy="25"
     inkscape:window-x="0"
     inkscape:window-y="0"
     inkscape:window-maximized="1"
     inkscape:current-layer="Layer_1" /><path
     fill="none"
     stroke="#000000"
     stroke-width="2"
     stroke-linecap="round"
     stroke-miterlimit="10"
     d="M38.72,25.796  c0.526-1.504,0.826-3.113,0.826-4.796H45c0-3.514-2.85-6.364-6.364-6.364c-0.186,0-0.362,0.039-0.545,0.055  c-0.715-1.479-1.657-2.829-2.805-3.977l3.857-3.857c-2.484-2.484-6.515-2.484-8.999,0c-0.131,0.131-0.228,0.284-0.346,0.424  C28.294,6.755,26.684,6.455,25,6.455V1c-3.514,0-6.364,2.85-6.364,6.364c0,0.186,0.039,0.362,0.055,0.545  c-1.48,0.714-2.829,1.657-3.977,2.805l-3.857-3.857c-2.484,2.484-2.484,6.515,0.002,9c0.131,0.131,0.282,0.227,0.422,0.344  c-0.527,1.504-0.827,3.114-0.827,4.798H5c0,3.514,2.85,6.364,6.364,6.364c0.186,0,0.362-0.039,0.545-0.055  c0.715,1.479,1.657,2.829,2.805,3.977l-3.855,3.855c2.484,2.486,6.515,2.486,8.999,0.002c0.131-0.131,0.228-0.282,0.345-0.423  c1.504,0.526,3.113,0.826,4.797,0.826V41c3.514,0,6.364-2.85,6.364-6.364c0-0.186-0.039-0.362-0.055-0.545  c1.48-0.714,2.829-1.657,3.977-2.805l3.857,3.857c2.484-2.484,2.484-6.515,0-9C39.011,26.011,38.859,25.915,38.72,25.796z"
     id="path3"
     style="stroke:#008080;stroke-opacity:1" /><path
     fill="none"
     stroke="#000000"
     stroke-width="2"
     stroke-linecap="round"
     stroke-linejoin="round"
     stroke-miterlimit="10"
     d="  M49,44.646c-0.494,0.173-1.091,0.296-1.846,0.296c-1.538,0-3.902-0.42-5.539-1.71c-1.637,1.29-4,1.71-5.538,1.71  c-1.538,0-3.901-0.42-5.539-1.71c-1.637,1.29-4,1.71-5.538,1.71c-1.538,0-3.901-0.42-5.539-1.71c-1.637,1.29-4,1.71-5.538,1.71  c-1.538,0-3.901-0.42-5.538-1.71c-1.637,1.29-4.001,1.71-5.539,1.71c-0.69,0-1.291-0.062-1.846-0.148"
     id="path5"
     style="stroke:#008080;stroke-opacity:1" /><path
     fill="none"
     stroke="#000000"
     stroke-width="2"
     stroke-linecap="round"
     stroke-linejoin="round"
     stroke-miterlimit="10"
     d="  M49,48.646c-0.494,0.173-1.091,0.296-1.846,0.296c-1.538,0-3.902-0.42-5.539-1.71c-1.637,1.29-4,1.71-5.538,1.71  c-1.538,0-3.901-0.42-5.539-1.71c-1.637,1.29-4,1.71-5.538,1.71c-1.538,0-3.901-0.42-5.539-1.71c-1.637,1.29-4,1.71-5.538,1.71  c-1.538,0-3.901-0.42-5.538-1.71c-1.637,1.29-4.001,1.71-5.539,1.71c-0.69,0-1.291-0.062-1.846-0.148"
     id="path7"
     style="stroke:#008080;stroke-opacity:1" /><polygon
     points="20.665,31.059 24.851,21.941 19.865,21.941 24.798,12.057 29.061,12.057 24.811,19.062 30.199,19.062 "
     id="polygon9"
     style="fill:#008080;fill-opacity:1" /></svg>