<?xml version="1.0" encoding="UTF-8" standalone="no"?>
<!-- Generator: Adobe Illustrator 16.0.0, SVG Export Plug-In . SVG Version: 6.00 Build 0)  -->

<svg
   xmlns:dc="http://purl.org/dc/elements/1.1/"
   xmlns:cc="http://creativecommons.org/ns#"
   xmlns:rdf="http://www.w3.org/1999/02/22-rdf-syntax-ns#"
   xmlns:svg="http://www.w3.org/2000/svg"
   xmlns="http://www.w3.org/2000/svg"
   xmlns:sodipodi="http://sodipodi.sourceforge.net/DTD/sodipodi-0.dtd"
   xmlns:inkscape="http://www.inkscape.org/namespaces/inkscape"
   version="1.1"
   id="Layer_1"
   x="0px"
   y="0px"
   width="50px"
   height="50px"
   viewBox="-175.5 -245.5 50 50"
   enable-background="new -175.5 -245.5 50 50"
   xml:space="preserve"
   inkscape:version="0.91 r"
   sodipodi:docname="bitcoin_wallet.svg"><metadata
     id="metadata9"><rdf:RDF><cc:Work
         rdf:about=""><dc:format>image/svg+xml</dc:format><dc:type
           rdf:resource="http://purl.org/dc/dcmitype/StillImage" /><dc:title></dc:title></cc:Work></rdf:RDF></metadata><defs
     id="defs7" /><sodipodi:namedview
     pagecolor="#ffffff"
     bordercolor="#666666"
     borderopacity="1"
     objecttolerance="10"
     gridtolerance="10"
     guidetolerance="10"
     inkscape:pageopacity="0"
     inkscape:pageshadow="2"
     inkscape:window-width="1600"
     inkscape:window-height="848"
     id="namedview5"
     showgrid="false"
     inkscape:zoom="4.72"
     inkscape:cx="25"
     inkscape:cy="25"
     inkscape:window-x="0"
     inkscape:window-y="0"
     inkscape:window-maximized="1"
     inkscape:current-layer="Layer_1" /><path
     d="m -137.62396,-220.49215 c 0,-7.08062 -5.75855,-12.84197 -12.83781,-12.84197 -7.082,0 -12.84334,5.76135 -12.84334,12.84197 0,7.08064 5.76134,12.84197 12.84334,12.84197 7.07926,0 12.83781,-5.76133 12.83781,-12.84197 z m -12.83781,11.45747 c -6.32872,0 -11.45746,-5.12874 -11.45746,-11.45747 0,-6.32733 5.12874,-11.45746 11.45746,-11.45746 6.32458,0 11.45332,5.13013 11.45332,11.45746 0,6.32873 -5.12874,11.45747 -11.45332,11.45747 z m -0.0665,-12.37029 -1.05293,0 0,-2.34171 1.05293,0 c 0.61457,0 1.04185,0.0374 1.27906,0.11376 0.23723,0.075 0.42312,0.20392 0.54798,0.38287 0.12624,0.17757 0.19144,0.394 0.19144,0.64786 0,0.24139 -0.0679,0.45781 -0.20116,0.64369 -0.13455,0.18452 -0.33017,0.32324 -0.59374,0.41618 -0.26358,0.0916 -0.67282,0.13735 -1.22358,0.13735 z m 2.00461,2.01015 c 0.13456,0.19978 0.19976,0.43977 0.19976,0.72416 0,0.33572 -0.0957,0.62288 -0.28299,0.8615 -0.1873,0.23861 -0.41341,0.39537 -0.68254,0.47167 -0.27052,0.0749 -0.60902,0.11514 -1.0141,0.11514 l -0.70196,0 c -0.23306,0 -0.37595,-0.0125 -0.42867,-0.0403 -0.0513,-0.0221 -0.0916,-0.0679 -0.11375,-0.13317 -0.0194,-0.0499 -0.0306,-0.22197 -0.0319,-0.51884 l 0,-2.07953 1.243,0 c 0.54381,0 0.9489,0.0513 1.21665,0.1526 0.26635,0.10133 0.46196,0.25111 0.59652,0.4467 z m -1.93803,-11.35066 c -5.66421,0 -10.2547,4.59189 -10.2547,10.25333 0,5.66423 4.59049,10.25332 10.2547,10.25332 5.66008,0 10.25056,-4.58909 10.25056,-10.25332 -9.8e-4,-5.66144 -4.59186,-10.25333 -10.25056,-10.25333 z m 4.16875,13.73815 c -0.30519,0.43007 -0.73801,0.75746 -1.30125,0.98219 -0.20393,0.0819 -0.4467,0.14844 -0.72,0.20116 l 0,1.71745 -1.62726,0 0,-1.58288 c -0.0403,0 -0.079,9.7e-4 -0.1193,9.7e-4 l -0.92394,0 0,1.58149 -1.62865,0 0,-1.58149 -2.48322,0 0,-1.32902 0.37873,0 c 0.25527,0 0.42313,-0.0221 0.51329,-0.0651 0.0873,-0.043 0.15121,-0.10541 0.18868,-0.1859 0.0389,-0.0818 0.0555,-0.26079 0.0555,-0.54104 l 0,-5.35902 c 0,-0.28438 -0.0166,-0.46611 -0.0555,-0.5452 -0.036,-0.0763 -0.0999,-0.14011 -0.18868,-0.18588 -0.0902,-0.0458 -0.25802,-0.0679 -0.51329,-0.0679 l -0.37873,0 0,-1.329 2.48322,0 0,-1.58011 1.62865,0 0,1.58011 1.04324,0 0,-1.58011 1.62726,0 0,1.69525 c 0.24001,0.0472 0.46058,0.10268 0.64648,0.17896 0.47721,0.19561 0.84623,0.47444 1.10149,0.8393 0.25387,0.36623 0.3815,0.76716 0.3815,1.20414 0,0.31491 -0.0679,0.61734 -0.20255,0.90173 -0.13317,0.2844 -0.33016,0.53549 -0.58542,0.75329 -0.25526,0.21781 -0.59376,0.39815 -1.01409,0.53964 0.45086,0.11377 0.79628,0.24278 1.03351,0.38013 0.34543,0.19421 0.61456,0.46196 0.81987,0.81016 0.20255,0.34682 0.30521,0.73247 0.30521,1.15838 0,0.50911 -0.15815,0.9794 -0.46475,1.40806 z m 14.53445,2.15167 0,2.08089 c 0,0.3829 -0.31075,0.69365 -0.69365,0.69365 -0.38288,0 -0.69363,-0.31075 -0.69363,-0.69365 l 0,-2.08089 c 0,-0.3829 0.31075,-0.69364 0.69363,-0.69364 0.3829,0 0.69365,0.31074 0.69365,0.69364 z m -35.92893,8.61912 c 0.14428,0.35513 -0.0277,0.75883 -0.38289,0.9031 -0.0861,0.0346 -0.17341,0.0513 -0.2608,0.0513 -0.27468,0 -0.53409,-0.16369 -0.64232,-0.4342 -0.31351,-0.7755 -0.47167,-1.59399 -0.47167,-2.43467 l 0,-1.89224 c 0,-0.38289 0.31076,-0.69364 0.69364,-0.69364 0.38288,0 0.69363,0.31075 0.69363,0.69364 l 0,1.89224 c 0,0.66312 0.12348,1.3068 0.37041,1.91444 z m -1.75768,-24.41183 0,-2.18632 c 0,-0.7297 0.11932,-1.44553 0.35653,-2.12808 0.12487,-0.36207 0.52023,-0.55491 0.88232,-0.42728 0.36206,0.12485 0.55351,0.52024 0.42728,0.88231 -0.1859,0.53549 -0.28024,1.09871 -0.28024,1.67305 l 0,2.18632 c 0,0.3829 -0.31075,0.69365 -0.69365,0.69365 -0.38287,0 -0.69224,-0.30937 -0.69224,-0.69365 z m 0,8.24317 0,-4.12158 c 0,-0.38288 0.31076,-0.69364 0.69364,-0.69364 0.38288,0 0.69363,0.31076 0.69363,0.69364 l 0,4.12158 c 0,0.38289 -0.31075,0.69363 -0.69363,0.69363 -0.38288,0 -0.69364,-0.31074 -0.69364,-0.69363 z m 0,8.24178 0,-4.12158 c 0,-0.38288 0.31076,-0.69364 0.69364,-0.69364 0.38288,0 0.69363,0.31076 0.69363,0.69364 l 0,4.12158 c 0,0.38289 -0.31075,0.69363 -0.69363,0.69363 -0.38288,0 -0.69364,-0.31074 -0.69364,-0.69363 z m 10.98025,-24.47839 c 0,-0.38289 0.31076,-0.69363 0.69365,-0.69363 l 4.12157,0 c 0.38289,0 0.69363,0.31074 0.69363,0.69363 0,0.38289 -0.31074,0.69364 -0.69363,0.69364 l -4.12157,0 c -0.38289,0 -0.69365,-0.31075 -0.69365,-0.69364 z m 24.20372,2.61917 c -0.23862,-0.29965 -0.19005,-0.73663 0.10961,-0.97525 0.29965,-0.23862 0.73526,-0.19007 0.97526,0.10961 0.91421,1.14589 1.41779,2.58588 1.41779,4.05361 l 0,0.20948 c 0,0.38287 -0.31075,0.69363 -0.69364,0.69363 -0.38289,0 -0.69363,-0.31076 -0.69363,-0.69363 l 0,-0.20948 c 0,-1.17086 -0.38567,-2.27375 -1.11536,-3.18795 z m -7.71877,-2.61917 c 0,-0.38289 0.31075,-0.69363 0.69363,-0.69363 l 3.02703,0 c 0.40647,0 0.81571,0.0374 1.21524,0.11376 0.37596,0.0709 0.62428,0.4342 0.55215,0.81015 -0.0625,0.33294 -0.35376,0.56462 -0.68117,0.56462 -0.043,0 -0.0861,-0.005 -0.129,-0.0125 -0.31492,-0.0596 -0.63676,-0.0888 -0.9586,-0.0888 l -3.02703,0 c -0.3815,0 -0.69225,-0.31074 -0.69225,-0.69364 z m -8.24178,0 c 0,-0.38289 0.31075,-0.69363 0.69363,-0.69363 l 4.12158,0 c 0.3829,0 0.69364,0.31074 0.69364,0.69363 0,0.38289 -0.31074,0.69364 -0.69364,0.69364 l -4.12158,0 c -0.38426,0 -0.69363,-0.31075 -0.69363,-0.69364 z m -15.64981,1.48438 c -0.2386,0 -0.47028,-0.12208 -0.59929,-0.34405 -0.19284,-0.33016 -0.0819,-0.75606 0.24831,-0.94888 0.99053,-0.57849 2.12392,-0.88508 3.27813,-0.88647 l 1.05155,0 c 0.38289,0 0.69364,0.31074 0.69364,0.69364 0,0.38287 -0.31075,0.69362 -0.69364,0.69362 l -1.05155,0 c -0.90866,0 -1.7993,0.24139 -2.57755,0.69642 -0.10961,0.0651 -0.23029,0.0957 -0.3496,0.0957 z m 21.44998,34.81495 c 0,0.38288 -0.31074,0.69363 -0.69363,0.69363 l -4.12158,0 c -0.38288,0 -0.69363,-0.31075 -0.69363,-0.69363 0,-0.3829 0.31075,-0.69364 0.69363,-0.69364 l 4.12158,0 c 0.38427,0 0.69363,0.31074 0.69363,0.69364 z m 12.66302,-6.3107 0,0.50358 c 0,1.37201 -0.42174,2.68298 -1.2208,3.79142 -0.13595,0.18866 -0.34821,0.28855 -0.56323,0.28855 -0.14012,0 -0.28162,-0.043 -0.40509,-0.13041 -0.31074,-0.22336 -0.3815,-0.65755 -0.15815,-0.96831 0.62705,-0.87121 0.9586,-1.90333 0.9586,-2.98125 l 0,-0.50358 c 0,-0.38288 0.31075,-0.69364 0.69365,-0.69364 0.38288,0 0.69502,0.30937 0.69502,0.69364 z m -4.45315,5.98329 c 0.0902,0.37319 -0.13873,0.74775 -0.5105,0.83793 -0.49942,0.12068 -1.0141,0.18311 -1.53017,0.18311 -0.002,0 -0.006,0 -0.008,0 l -2.73292,0 c -0.3829,0 -0.69365,-0.31075 -0.69365,-0.69363 0,-0.3829 0.31075,-0.69364 0.69365,-0.69364 l 2.7343,0 c 0.41064,-0.0583 0.81434,-0.0472 1.2097,-0.14427 0.36763,-0.093 0.74774,0.13873 0.83792,0.5105 z m -24.6934,0.32741 c 0,0.38288 -0.31077,0.69363 -0.69364,0.69363 l -1.34427,0 c -1.04045,0 -2.07397,-0.2511 -2.99096,-0.72693 -0.33989,-0.17618 -0.47167,-0.59513 -0.29548,-0.93501 0.17617,-0.33989 0.59373,-0.47308 0.93501,-0.29549 0.73109,0.37871 1.52184,0.57155 2.35143,0.57155 l 1.34427,0 c 0.38287,-9.7e-4 0.69364,0.30935 0.69364,0.69225 z m 8.24176,0 c 0,0.38288 -0.31075,0.69363 -0.69363,0.69363 l -4.1202,0 c -0.38289,0 -0.69364,-0.31075 -0.69364,-0.69363 0,-0.3829 0.31075,-0.69364 0.69364,-0.69364 l 4.1202,0 c 0.38288,0 0.69363,0.31074 0.69363,0.69364 z m 20.90479,-26.09319 0,2.08092 c 0,0.38289 -0.31075,0.69363 -0.69365,0.69363 -0.38288,0 -0.69363,-0.31074 -0.69363,-0.69363 l 0,-2.08092 c 0,-0.38287 0.31075,-0.69362 0.69363,-0.69362 0.3829,0 0.69365,0.31075 0.69365,0.69362 z m 5.89728,7.94352 0.005,-0.61317 c 0.0166,-1.3401 0.0306,-2.49709 -0.71306,-3.25038 -0.25665,-0.25941 -0.58265,-0.43005 -0.96831,-0.53271 l 0,-10.34487 c 0,-4.59049 -3.73315,-8.32363 -8.32363,-8.32363 l -29.4795,0 c -4.59048,0 -8.32363,3.73314 -8.32363,8.32363 l 0,29.4795 c 0,4.59048 3.73315,8.32363 8.32363,8.32363 l 29.4795,0 c 4.59048,0 8.32363,-3.73315 8.32363,-8.32363 l 0,-10.34488 c 0.38566,-0.10269 0.71306,-0.27329 0.96831,-0.5327 0.74359,-0.7533 0.7297,-1.91028 0.71306,-3.25038 l -0.005,-0.61041 z m -10.00084,20.28884 -29.4795,0 c -3.06032,0 -5.54908,-2.48877 -5.54908,-5.54908 l 0,-29.47951 c 0,-3.06032 2.48876,-5.54907 5.54908,-5.54907 l 29.4795,0 c 3.06032,0 5.5491,2.48875 5.5491,5.54907 l 0,10.23113 -1.9075,0 c -2.486,0 -4.50863,2.02263 -4.50863,4.50862 0,2.48599 2.02263,4.50864 4.50863,4.50864 l 1.9075,0 0,10.23112 c 0,3.06031 -2.48878,5.54908 -5.5491,5.54908 z m 8.61773,-19.65764 c 0.0125,0.98498 0.0237,1.91583 -0.31352,2.25711 -0.0846,0.0861 -0.22058,0.14288 -0.38565,0.18033 -0.25111,-0.25247 -0.5993,-0.40924 -0.98359,-0.40924 -0.40646,0 -0.76438,0.18173 -1.01826,0.46197 l -2.27651,0 c -1.7216,0 -3.12134,-1.39976 -3.12134,-3.12137 0,-1.72161 1.39974,-3.12136 3.12134,-3.12136 l 2.19744,0 c 0.25388,0.34267 0.63954,0.5785 1.09733,0.5785 0.43006,0 0.79907,-0.20672 1.05294,-0.51329 0.13458,0.0389 0.24139,0.093 0.3163,0.16785 0.3371,0.34127 0.32462,1.27214 0.31352,2.25709 l -0.006,0.63121 0.006,0.6312 z m -2.54841,-0.6312 c 0,1.15005 -0.93085,2.08091 -2.08091,2.08091 -1.15006,0 -2.08091,-0.93086 -2.08091,-2.08091 0,-1.15005 0.93085,-2.08091 2.08091,-2.08091 1.15006,0 2.08091,0.93086 2.08091,2.08091 z"
     id="path3"
     style="fill:#ffcc00"
     inkscape:connector-curvature="0" /></svg>