<?xml version="1.0" encoding="UTF-8" standalone="no"?>
<!-- Generator: Adobe Illustrator 16.0.0, SVG Export Plug-In . SVG Version: 6.00 Build 0)  -->

<svg
   xmlns:dc="http://purl.org/dc/elements/1.1/"
   xmlns:cc="http://creativecommons.org/ns#"
   xmlns:rdf="http://www.w3.org/1999/02/22-rdf-syntax-ns#"
   xmlns:svg="http://www.w3.org/2000/svg"
   xmlns="http://www.w3.org/2000/svg"
   xmlns:sodipodi="http://sodipodi.sourceforge.net/DTD/sodipodi-0.dtd"
   xmlns:inkscape="http://www.inkscape.org/namespaces/inkscape"
   version="1.1"
   x="0px"
   y="0px"
   width="64px"
   height="64px"
   viewBox="0 0 64 64"
   enable-background="new 0 0 64 64"
   xml:space="preserve"
   id="svg2"
   inkscape:version="0.91 r"
   sodipodi:docname="bullhorn.svg"><metadata
     id="metadata25"><rdf:RDF><cc:Work
         rdf:about=""><dc:format>image/svg+xml</dc:format><dc:type
           rdf:resource="http://purl.org/dc/dcmitype/StillImage" /><dc:title /></cc:Work></rdf:RDF></metadata><defs
     id="defs23" /><sodipodi:namedview
     pagecolor="#ffffff"
     bordercolor="#666666"
     borderopacity="1"
     objecttolerance="10"
     gridtolerance="10"
     guidetolerance="10"
     inkscape:pageopacity="0"
     inkscape:pageshadow="2"
     inkscape:window-width="1600"
     inkscape:window-height="848"
     id="namedview21"
     showgrid="false"
     inkscape:zoom="3.6875"
     inkscape:cx="-50.169492"
     inkscape:cy="31.457627"
     inkscape:window-x="0"
     inkscape:window-y="0"
     inkscape:window-maximized="1"
     inkscape:current-layer="svg2" /><g
     id="eye"
     transform="matrix(-1,0,0,1,64,0)"
     style="fill:#00ffff"><path
       d="m 63.065,6.307 c -0.581,-0.364 -1.311,-0.408 -1.93,-0.113 -16.617,7.899 -38.423,8.514 -44.714,8.514 -0.838,0 -1.301,-0.012 -1.316,-0.014 -0.557,-0.018 -1.063,0.188 -1.45,0.563 -0.349,0.338 -0.536,0.797 -0.573,1.277 l -7.08,0 C 2.691,16.535 0,19.214 0,22.508 l 0,8.601 c 0,3.293 2.691,5.973 6.002,5.973 l 7.07,0 c 0.025,0.497 0.223,0.974 0.583,1.323 0.272,0.263 0.617,0.399 0.982,0.479 0.045,5.991 1.261,12.229 3.797,19.442 0.28,0.799 1.037,1.333 1.887,1.333 l 10.338,0 c 0.679,0 1.312,-0.343 1.681,-0.911 0.367,-0.568 0.422,-1.283 0.141,-1.9 -1.399,-3.083 -4.573,-11.646 -4.103,-17.328 9.452,0.84 22.153,2.908 32.758,7.949 0.273,0.131 0.569,0.195 0.863,0.195 0.372,0 0.743,-0.104 1.066,-0.308 C 63.646,46.992 64,46.357 64,45.673 L 64,7.991 C 64,7.306 63.646,6.67 63.065,6.307 Z m -59.064,24.802 0,-8.601 c 0,-1.099 0.896,-1.991 2.001,-1.991 l 7.048,0 0,12.583 -7.048,0 c -1.105,0 -2.001,-0.892 -2.001,-1.991 z m 23.68,24.569 -5.928,0 c -2.057,-6.173 -3.062,-11.557 -3.117,-16.697 1.555,0.031 3.494,0.1 5.749,0.238 -0.442,5.602 1.83,12.621 3.296,16.459 z M 59.999,42.602 C 43.627,35.774 23.869,35.017 17.051,34.977 l 0,-16.289 c 6.818,-0.041 26.576,-0.797 42.948,-7.625 l 0,31.539 z"
       id="path5"
       inkscape:connector-curvature="0"
       style="fill:#00ffff" /></g><g
     id="comment" /><g
     id="map-marker" /><g
     id="earth" /><g
     id="heart" /><g
     id="twitter" /><g
     id="bucket" /><g
     id="paperclip" /><g
     id="undo" /><g
     id="redo" /><g
     id="chevron-left" /><g
     id="chevron-right" /><g
     id="cross" /><g
     id="search" /><g
     id="hamburger" /></svg>